. 
  
http://www.torrentday.com/        :     The Hottest Private Tracker On The Net!!!
 
http://www.torrentday.com          :     Once & For all ;)


               www . TorrentDay . Com 

(((((((((((((= Enjoy No RAR releases =))))))))))))))))))))


...................................NFO:....................................

.[img]http://img856.imageshack.us/img856/8094/howdoyouknowblurayart.jpg[/img]

[color=blue][size=5][b]How Do You Know 2010 BDRip XVID AC3 HQ Hive-CM8[/b][/size][/color]


[b]Thx Hive

CM8 Doing It Right The First Time :D

Why download a touched up rip of a rip BRrip
Get the real deal BDRip
Enjoy

Source Bluray

Video: 720x384 @bitrate 1700 2pass
Audio: DTS to AC3 5.1 @448
Sample: yes included[/b]
 
http://www.imdb.com/title/tt1341188/


General
Complete name                    : How.Do.You.Know.2010.BDRip.XVID.AC3.HQ.Hive-CM8.avi
Format                           : AVI
Format/Info                      : Audio Video Interleave
File size                        : 1.82 GiB
Duration                         : 2h 0mn
Overall bit rate                 : 2 157 Kbps
Writing application              : Nandub v1.0rc2
Writing library                  : Nandub build 1853/release

Video
ID                               : 0
Format                           : MPEG-4 Visual
Format profile                   : Advanced Simple@L5
Format settings, BVOP            : Yes
Format settings, QPel            : Yes
Format settings, GMC             : No warppoints
Format settings, Matrix          : Default (H.263)
Muxing mode                      : Packed bitstream
Codec ID                         : XVID
Codec ID/Hint                    : XviD
Duration                         : 2h 0mn
Bit rate                         : 1 700 Kbps
Width                            : 720 pixels
Height                           : 384 pixels
Display aspect ratio             : 1.850
Frame rate                       : 23.976 fps
Color space                      : YUV
Chroma subsampling               : 4:2:0
Bit depth                        : 8 bits
Scan type                        : Progressive
Bits/(Pixel*Frame)               : 0.256
Stream size                      : 1.43 GiB (79%)
Writing library                  : XviD 1.2.1 (UTC 2008-12-04)

Audio
ID                               : 1
Format                           : AC-3
Format/Info                      : Audio Coding 3
Mode extension                   : CM (complete main)
Codec ID                         : 2000
Duration                         : 2h 0mn
Bit rate mode                    : Constant
Bit rate                         : 448 Kbps
Channel(s)                       : 6 channels
Channel positions                : Front: L C R, Side: L R, LFE
Sampling rate                    : 48.0 KHz
Bit depth                        : 16 bits
Stream size                      : 387 MiB (21%)
Alignment                        : Split accross interleaves
Interleave, duration             : 42 ms (1.00 video frame)
Interleave, preload duration     : 500 ms



Reese Witherspoon   ...  Lisa
Paul Rudd  	... George
Owen Wilson 	 ... Matty
Jack Nicholson 	 ... 	Charles
Kathryn Hahn 	... 	Annie
Mark Linn-Baker ... 	Ron  



After being cut from the USA softball team and feeling a bit past her prime, 
Lisa finds herself evaluating her life and in the middle of a love triangle, 
as a corporate guy in crisis competes with her current, baseball-playing beau.  



[img]http://img84.imageshack.us/img84/8599/hhohhohohooo.png[/img]
[img]http://img826.imageshack.us/img826/9982/hhohhohooo.png[/img]
[img]http://img26.imageshack.us/img26/2589/hhoo.png[/img]
[img]http://img641.imageshack.us/img641/7117/64291037.png[/img]
[img]http://img535.imageshack.us/img535/2722/hhohhohohohohooo.png[/img]
[img]http://img607.imageshack.us/img607/3992/hhohhohohohooo.png[/img]
[img]http://img155.imageshack.us/img155/3640/hhohhooo.png[/img]
[img]http://img146.imageshack.us/img146/170/hhohoo.png[/img]





Greetz

iNK,LUSi,,MAGNET,CLASSiFiED,THC,LEGi0N,T0XiC,IMAGiNE,ViSiON,WBZ,FLAWL3SS,NOVA
Vik,Rapeseed,D2U,SAFC,goldadvance,MEMORY100,KaN1vE,Unevano,Pinnz,Wayne,Mr Hive
and all P2P groups 
Great Work Guys :D

CM8@hushmail.com